<svg xmlns="http://www.w3.org/2000/svg" viewBox="0 0 690.06 172.04" fill="#F1678D" fill-rule="evenodd" role="img" aria-label="Nanita">
  <title>Nanita</title>
  <g><path fill-rule="evenodd" d="M0.06 1.79L0.06 161.04C2.92 162.11 0.29 161.96 2.52 161.96L20.52 161.94L29.52 161.92C32.02 161.92 28.84 162.13 31.65 161.25L31.65 56.04C34.06 57.56 31.75 54.22 33.23 57.04L37.96 65.04L49.19 84.04C59.93 101.53 70.34 119.29 80.67 137.04L88.84 151.04C90.88 154.75 92.81 158.72 95.52 161.92L126.93 161.92L126.93 3.04C123.98 1.71 127.94 2.08 124.52 1.95L114.52 1.96L99.52 2C96.47 2.02 93.38 1.82 90.45 2.35L90.45 91.04C87.28 87.02 91.96 94.34 88.88 89.04L83.98 81.04C80.67 76.25 77.61 71.1 74.7 66.04C71.18 59.9 66.82 54.2 63.32 48.04C59.03 40.5 54.02 33.18 49.11 26.04C43.62 18.07 39.28 9.05 32.85 1.79L0.06 1.79ZM320.52 9.43L319.09 1.79L286.78 1.79L286.78 120.36L319.52 120.36C320.36 114.73 319.87 108.76 319.87 103.04C319.87 91.05 319.62 79.02 319.91 67.04C320.1 59.56 318.8 51.04 322.09 44.04C324.4 39.11 327.89 35.29 332.52 32.42C334.6 31.14 337.17 30.72 339.52 30.3C347.92 28.81 356.79 32.14 360.87 40.04C364.71 47.47 363.67 58.84 363.58 67.04L363.61 101.04C363.61 107.37 362.97 114.17 364.02 120.36L396.52 120.36C396.94 113.94 396.74 107.47 396.74 101.04L396.74 70.04C396.78 56.13 397.81 41.22 392.73 28.04C384.59 6.9 362.95 -2.24 341.52 0.46C338.17 0.88 334.63 1.37 331.52 2.8C327.54 4.63 324.01 6.75 320.52 9.43ZM655.06 109.74L655.06 120.36L687.19 120.36L687.19 1.79L655.52 1.79L654.55 13.04C646.26 7.1 636.87 2.25 626.52 1.42C604.22 -0.36 582.12 7.27 568.52 25.91C545.47 57.49 554.98 107.09 594.52 119.82C603.06 122.57 612.6 123.25 621.52 122.48C633.91 121.41 644.69 116.21 655.06 109.74ZM236.52 110.26L237.88 120.36L269.14 120.36L269.14 1.79L237.4 1.79L237.4 12.04C233.38 10.55 238.79 14.06 234.7 11.04C231.26 8.5 227.47 6.29 223.52 4.67C214.4 0.92 205.33 -0.05 195.52 0.52C169.38 2.02 147.61 23.13 141.82 48.04C140.47 53.87 139.62 60.04 140.25 66.04C142.81 90.48 157.49 110.32 180.52 119.3C190.34 123.13 201.32 123.08 211.52 121.54C220.74 120.14 229.21 115.94 236.52 110.26ZM467.03 1.79L467.03 31.04C470.28 32.09 467.09 31.89 469.52 31.85L483.52 31.86C486.33 31.91 489.22 31.67 491.96 32.04L491.96 120.36L523.52 120.36L526.2 32.04L553.52 31.11C554.1 25.83 553.74 20.36 553.76 15.04L553.76 4.04C553.75 1.63 553.99 4.69 552.93 1.79L467.03 1.79ZM416.83 2.19L416.83 120.36L448.52 120.36C449.51 117.6 449.32 120.31 449.35 118.04L449.34 108.04L449.33 84.04L449.86 3.04C446.84 1.65 451.21 2.11 447.52 1.96C441.54 1.73 435.5 1.93 429.52 1.94C425.32 1.96 420.99 1.59 416.83 2.19ZM616.01 32.04C620.9 31.2 626.79 30.9 631.52 32.79C635.8 34.5 640.11 36.53 643.52 39.72C651 46.72 655.23 57.84 652.79 68.04C650.87 76.07 646.05 82.74 639.52 87.66C636.06 90.27 631.78 92.43 627.52 93.4C623.26 94.38 618.84 94.74 614.52 94.02C610.59 93.37 607.02 92.39 603.52 90.42C597.72 87.17 594.34 81.92 591.77 76.04C589.85 71.66 589.62 66.78 589.93 62.04C590.89 47.37 601.93 35.41 616.01 32.04ZM201.22 31.04C222.93 28.96 241.11 49.75 233.98 71.04C233.4 72.78 232.38 74.34 231.52 75.95C229.19 80.32 225.72 84.09 221.52 86.71C218.07 88.86 214.56 90.58 210.52 91.3C177.79 97.12 160.09 56.96 186.52 36.67C190.83 33.35 195.97 31.92 201.22 31.04ZM291 136.74L291 165.64L363.7 165.64L363.7 136.74L291 136.74ZM483.52 136.74C482.43 139.75 482.65 136.6 482.69 139.04C482.84 147.9 482.45 156.78 482.75 165.64L550.6 165.64L550.6 136.74L483.52 136.74ZM621.52 127.86L599.52 149.88L622 172.04L643.86 150.04L621.52 127.86ZM196.52 128L174.69 150.04L196.43 172.04L219.19 150.04L196.52 128ZM403.61 150.04L425.37 172.04L448.13 150.04L425.52 127.99L403.61 150.04Z"/></g>
</svg>
